<svg xmlns="http://www.w3.org/2000/svg" viewBox="0 0 400 80">
  <defs>
    <linearGradient id="textGrad" x1="0%" y1="0%" x2="100%" y2="0%">
      <stop offset="0%" style="stop-color:#2a9d8f"/>
      <stop offset="100%" style="stop-color:#7b2d8e"/>
    </linearGradient>
  </defs>

  <!-- Icon -->
  <g transform="translate(5, 5)">
    <rect x="0" y="0" width="70" height="70" rx="16" fill="url(#textGrad)"/>
    <g fill="white" transform="translate(10, 10)">
      <circle cx="40" cy="12" r="5"/>
      <circle cx="25" cy="10" r="5"/>
      <circle cx="12" cy="20" r="5"/>
      <circle cx="8" cy="35" r="5"/>
      <circle cx="12" cy="50" r="5"/>
      <circle cx="25" cy="60" r="5"/>
      <circle cx="40" cy="58" r="5"/>
      <circle cx="30" cy="35" r="8"/>
      <line x1="40" y1="12" x2="25" y2="10" stroke="white" stroke-width="2" opacity="0.5"/>
      <line x1="25" y1="10" x2="12" y2="20" stroke="white" stroke-width="2" opacity="0.5"/>
      <line x1="12" y1="20" x2="8" y2="35" stroke="white" stroke-width="2" opacity="0.5"/>
      <line x1="8" y1="35" x2="12" y2="50" stroke="white" stroke-width="2" opacity="0.5"/>
      <line x1="12" y1="50" x2="25" y2="60" stroke="white" stroke-width="2" opacity="0.5"/>
      <line x1="25" y1="60" x2="40" y2="58" stroke="white" stroke-width="2" opacity="0.5"/>
    </g>
  </g>

  <!-- Text: Cortexiva -->
  <text x="90" y="55" font-family="system-ui, -apple-system, sans-serif" font-size="42" font-weight="700" fill="url(#textGrad)">
    Cortexiva
  </text>
</svg>
